<svg width="1600" height="1120" viewBox="0 0 1000 700" xmlns="http://www.w3.org/2000/svg" role="img" font-family="'Malgun Gothic', ui-sans-serif, system-ui, -apple-system, sans-serif">
<title>pill_recognition 데이터 모델 (한국어)</title>
<desc>계정·건강정보, 인식·대화·요약, 약(식약처 캐시) 테이블 관계도</desc>
<rect x="0" y="0" width="1000" height="700" fill="#ffffff"/>

<!-- legend -->
<g transform="translate(20,20)">
  <rect x="0" y="0" width="12" height="12" rx="3" fill="#3b5bdb"/>
  <text x="18" y="10" font-size="11" fill="#6b7280">사용자 소유 데이터</text>
  <rect x="0" y="20" width="12" height="12" rx="3" fill="#495057"/>
  <text x="18" y="30" font-size="11" fill="#6b7280">공공API 참조(캐시)</text>
  <text x="0" y="52" font-size="11" fill="#6b7280">점선 = 선택 · 1·N = 카디널리티 · FK? = nullable</text>
</g>

<!-- connectors -->
<g stroke="#9aa3af" stroke-width="1.4" fill="none">
  <path d="M545,125 V170"/>
  <path d="M455,75 H135 V185"/>
  <path d="M480,125 H415 V430 H445"/>
  <path d="M545,305 V360" stroke-dasharray="4 3"/>
  <path d="M510,495 V520 H430 V545"/>
  <path d="M590,495 V520 H632 V545"/>
  <path d="M645,230 H775"/>
  <path d="M645,420 H710 V300 H775"/>
  <path d="M130,320 V360"/>
  <path d="M180,320 V340 H320 V360"/>
</g>

<!-- ===== 계정 users ===== -->
<g>
  <rect x="455" y="20" width="180" height="105" rx="8" fill="#f4f5f7" stroke="#d4d8e0"/>
  <path d="M455,44 V28 Q455,20 463,20 H627 Q635,20 635,28 V44 Z" fill="#3b5bdb"/>
  <text x="465" y="36" font-size="12" font-weight="600" fill="#fff">계정 <tspan font-size="9" fill-opacity="0.7">users</tspan></text>
  <text x="465" y="58" font-size="10.5" font-weight="600" fill="#1f1f1f">id<tspan dx="5" font-size="9" font-weight="400" fill="#8a8f98">PK</tspan></text>
  <text x="465" y="73" font-size="10.5" fill="#1f1f1f">이메일<tspan dx="5" font-size="9" fill="#8a8f98">고유</tspan></text>
  <text x="465" y="88" font-size="10.5" fill="#1f1f1f">비밀번호 해시</text>
  <text x="465" y="103" font-size="10.5" fill="#1f1f1f">닉네임</text>
  <text x="465" y="118" font-size="10.5" fill="#1f1f1f">가입일시</text>
</g>

<!-- ===== 건강정보 health_profiles ===== -->
<g>
  <rect x="35" y="185" width="200" height="135" rx="8" fill="#f4f5f7" stroke="#d4d8e0"/>
  <path d="M35,209 V193 Q35,185 43,185 H227 Q235,185 235,193 V209 Z" fill="#3b5bdb"/>
  <text x="45" y="201" font-size="12" font-weight="600" fill="#fff">건강정보 <tspan font-size="9" fill-opacity="0.7">health_profiles</tspan></text>
  <text x="45" y="223" font-size="10.5" font-weight="600" fill="#1f1f1f">id<tspan dx="5" font-size="9" font-weight="400" fill="#8a8f98">PK</tspan></text>
  <text x="45" y="238" font-size="10.5" fill="#1f1f1f">사용자<tspan dx="5" font-size="9" fill="#8a8f98">FK→계정 · 1:1</tspan></text>
  <text x="45" y="253" font-size="10.5" fill="#1f1f1f">출생연도</text>
  <text x="45" y="268" font-size="10.5" fill="#1f1f1f">성별<tspan dx="5" font-size="9" fill="#8a8f98">남/여/기타</tspan></text>
  <text x="45" y="283" font-size="10.5" fill="#1f1f1f">임신 여부</text>
  <text x="45" y="298" font-size="10.5" fill="#1f1f1f">수유 여부</text>
  <text x="45" y="313" font-size="10.5" fill="#1f1f1f">수정일시</text>
</g>

<!-- ===== 복용약 medications ===== -->
<g>
  <rect x="35" y="360" width="190" height="120" rx="8" fill="#f4f5f7" stroke="#d4d8e0"/>
  <path d="M35,384 V368 Q35,360 43,360 H217 Q225,360 225,368 V384 Z" fill="#3b5bdb"/>
  <text x="45" y="376" font-size="12" font-weight="600" fill="#fff">복용약 <tspan font-size="9" fill-opacity="0.7">medications</tspan></text>
  <text x="45" y="398" font-size="10.5" font-weight="600" fill="#1f1f1f">id<tspan dx="5" font-size="9" font-weight="400" fill="#8a8f98">PK</tspan></text>
  <text x="45" y="413" font-size="10.5" fill="#1f1f1f">건강정보<tspan dx="5" font-size="9" fill="#8a8f98">FK</tspan></text>
  <text x="45" y="428" font-size="10.5" fill="#1f1f1f">약 이름</text>
  <text x="45" y="443" font-size="10.5" fill="#1f1f1f">약품코드<tspan dx="5" font-size="9" fill="#8a8f98">FK?→약</tspan></text>
  <text x="45" y="458" font-size="10.5" fill="#1f1f1f">메모</text>
  <text x="45" y="473" font-size="10.5" fill="#1f1f1f">등록일시</text>
</g>

<!-- ===== 알레르기 allergies ===== -->
<g>
  <rect x="240" y="360" width="160" height="105" rx="8" fill="#f4f5f7" stroke="#d4d8e0"/>
  <path d="M240,384 V368 Q240,360 248,360 H392 Q400,360 400,368 V384 Z" fill="#3b5bdb"/>
  <text x="250" y="376" font-size="12" font-weight="600" fill="#fff">알레르기 <tspan font-size="9" fill-opacity="0.7">allergies</tspan></text>
  <text x="250" y="398" font-size="10.5" font-weight="600" fill="#1f1f1f">id<tspan dx="5" font-size="9" font-weight="400" fill="#8a8f98">PK</tspan></text>
  <text x="250" y="413" font-size="10.5" fill="#1f1f1f">건강정보<tspan dx="5" font-size="9" fill="#8a8f98">FK</tspan></text>
  <text x="250" y="428" font-size="10.5" fill="#1f1f1f">항목 이름</text>
  <text x="250" y="443" font-size="10.5" fill="#1f1f1f">메모</text>
  <text x="250" y="458" font-size="10.5" fill="#1f1f1f">등록일시</text>
</g>

<!-- ===== 인식 scans ===== -->
<g>
  <rect x="445" y="170" width="200" height="135" rx="8" fill="#f4f5f7" stroke="#d4d8e0"/>
  <path d="M445,194 V178 Q445,170 453,170 H637 Q645,170 645,178 V194 Z" fill="#3b5bdb"/>
  <text x="455" y="186" font-size="12" font-weight="600" fill="#fff">인식 <tspan font-size="9" fill-opacity="0.7">scans</tspan></text>
  <text x="455" y="208" font-size="10.5" font-weight="600" fill="#1f1f1f">id<tspan dx="5" font-size="9" font-weight="400" fill="#8a8f98">PK</tspan></text>
  <text x="455" y="223" font-size="10.5" fill="#1f1f1f">사용자<tspan dx="5" font-size="9" fill="#8a8f98">FK</tspan></text>
  <text x="455" y="238" font-size="10.5" fill="#1f1f1f">추출 속성<tspan dx="5" font-size="9" fill="#8a8f98">JSON · 각인/색/모양/분할선</tspan></text>
  <text x="455" y="253" font-size="10.5" fill="#1f1f1f">매칭 품목코드<tspan dx="5" font-size="9" fill="#8a8f98">FK?→약</tspan></text>
  <text x="455" y="268" font-size="10.5" fill="#1f1f1f">신뢰도</text>
  <text x="455" y="283" font-size="10.5" fill="#1f1f1f">상태<tspan dx="5" font-size="9" fill="#8a8f98">성공/모호/실패</tspan></text>
  <text x="455" y="298" font-size="10.5" fill="#1f1f1f">인식일시</text>
</g>

<!-- ===== 알약사전 conversations ===== -->
<g>
  <rect x="445" y="360" width="200" height="135" rx="8" fill="#f4f5f7" stroke="#d4d8e0"/>
  <path d="M445,384 V368 Q445,360 453,360 H637 Q645,360 645,368 V384 Z" fill="#3b5bdb"/>
  <text x="455" y="376" font-size="12" font-weight="600" fill="#fff">알약사전 <tspan font-size="9" fill-opacity="0.7">conversations</tspan></text>
  <text x="455" y="398" font-size="10.5" font-weight="600" fill="#1f1f1f">id<tspan dx="5" font-size="9" font-weight="400" fill="#8a8f98">PK</tspan></text>
  <text x="455" y="413" font-size="10.5" fill="#1f1f1f">사용자<tspan dx="5" font-size="9" fill="#8a8f98">FK</tspan></text>
  <text x="455" y="428" font-size="10.5" fill="#1f1f1f">품목코드<tspan dx="5" font-size="9" fill="#8a8f98">FK?→약</tspan></text>
  <text x="455" y="443" font-size="10.5" fill="#1f1f1f">인식<tspan dx="5" font-size="9" fill="#8a8f98">FK?→인식</tspan></text>
  <text x="455" y="458" font-size="10.5" fill="#1f1f1f">제목</text>
  <text x="455" y="473" font-size="10.5" fill="#1f1f1f">생성일시</text>
  <text x="455" y="488" font-size="10.5" fill="#1f1f1f">수정일시</text>
</g>

<!-- ===== 대화 메시지 messages ===== -->
<g>
  <rect x="345" y="545" width="170" height="105" rx="8" fill="#f4f5f7" stroke="#d4d8e0"/>
  <path d="M345,569 V553 Q345,545 353,545 H507 Q515,545 515,553 V569 Z" fill="#3b5bdb"/>
  <text x="355" y="561" font-size="12" font-weight="600" fill="#fff">대화 메시지 <tspan font-size="9" fill-opacity="0.7">messages</tspan></text>
  <text x="355" y="583" font-size="10.5" font-weight="600" fill="#1f1f1f">id<tspan dx="5" font-size="9" font-weight="400" fill="#8a8f98">PK</tspan></text>
  <text x="355" y="598" font-size="10.5" fill="#1f1f1f">대화<tspan dx="5" font-size="9" fill="#8a8f98">FK→알약사전</tspan></text>
  <text x="355" y="613" font-size="10.5" fill="#1f1f1f">역할<tspan dx="5" font-size="9" fill="#8a8f98">사용자/AI</tspan></text>
  <text x="355" y="628" font-size="10.5" fill="#1f1f1f">내용</text>
  <text x="355" y="643" font-size="10.5" fill="#1f1f1f">작성일시</text>
</g>

<!-- ===== 요약 summaries ===== -->
<g>
  <rect x="540" y="545" width="190" height="120" rx="8" fill="#f4f5f7" stroke="#d4d8e0"/>
  <path d="M540,569 V553 Q540,545 548,545 H722 Q730,545 730,553 V569 Z" fill="#3b5bdb"/>
  <text x="550" y="561" font-size="12" font-weight="600" fill="#fff">요약 · 누적 <tspan font-size="9" fill-opacity="0.7">summaries</tspan></text>
  <text x="550" y="583" font-size="10.5" font-weight="600" fill="#1f1f1f">id<tspan dx="5" font-size="9" font-weight="400" fill="#8a8f98">PK</tspan></text>
  <text x="550" y="598" font-size="10.5" fill="#1f1f1f">대화<tspan dx="5" font-size="9" fill="#8a8f98">FK→알약사전</tspan></text>
  <text x="550" y="613" font-size="10.5" fill="#1f1f1f">버전<tspan dx="5" font-size="9" fill="#8a8f98">v1→v2…</tspan></text>
  <text x="550" y="628" font-size="10.5" fill="#1f1f1f">내용</text>
  <text x="550" y="643" font-size="10.5" fill="#1f1f1f">작성일시</text>
  <text x="550" y="658" font-size="9.5" fill="#8a8f98">고유(대화 + 버전)</text>
</g>

<!-- ===== 약 pills ===== -->
<g>
  <rect x="775" y="185" width="210" height="150" rx="8" fill="#f4f5f7" stroke="#d4d8e0"/>
  <path d="M775,209 V193 Q775,185 783,185 H977 Q985,185 985,193 V209 Z" fill="#495057"/>
  <text x="785" y="201" font-size="12" font-weight="600" fill="#fff">약 · 식약처 캐시 <tspan font-size="9" fill-opacity="0.7">pills</tspan></text>
  <text x="785" y="223" font-size="10.5" font-weight="600" fill="#1f1f1f">품목코드<tspan dx="5" font-size="9" font-weight="400" fill="#8a8f98">PK</tspan></text>
  <text x="785" y="238" font-size="10.5" fill="#1f1f1f">제품명</text>
  <text x="785" y="253" font-size="10.5" fill="#1f1f1f">제조사</text>
  <text x="785" y="268" font-size="10.5" fill="#1f1f1f">구분<tspan dx="5" font-size="9" fill="#8a8f98">일반/전문</tspan></text>
  <text x="785" y="283" font-size="10.5" fill="#1f1f1f">모양 · 색 · 각인 · 분할선</text>
  <text x="785" y="298" font-size="10.5" fill="#1f1f1f">효능 · 용법 · 주의</text>
  <text x="785" y="313" font-size="10.5" fill="#1f1f1f">원본 JSON</text>
  <text x="785" y="328" font-size="10.5" fill="#1f1f1f">조회일시</text>
</g>

<!-- ===== 증상 추천 symptom_queries ===== -->
<g>
  <rect x="775" y="470" width="210" height="105" rx="8" fill="#f4f5f7" stroke="#d4d8e0" stroke-dasharray="5 4"/>
  <path d="M775,494 V478 Q775,470 783,470 H977 Q985,470 985,478 V494 Z" fill="#3b5bdb" fill-opacity="0.75"/>
  <text x="785" y="486" font-size="12" font-weight="600" fill="#fff">증상 추천 · 선택 <tspan font-size="9" fill-opacity="0.7">symptom_queries</tspan></text>
  <text x="785" y="508" font-size="10.5" font-weight="600" fill="#1f1f1f">id<tspan dx="5" font-size="9" font-weight="400" fill="#8a8f98">PK</tspan></text>
  <text x="785" y="523" font-size="10.5" fill="#1f1f1f">사용자<tspan dx="5" font-size="9" fill="#8a8f98">FK→계정</tspan></text>
  <text x="785" y="538" font-size="10.5" fill="#1f1f1f">증상 텍스트</text>
  <text x="785" y="553" font-size="10.5" fill="#1f1f1f">결과<tspan dx="5" font-size="9" fill="#8a8f98">JSON · OTC</tspan></text>
  <text x="785" y="568" font-size="10.5" fill="#1f1f1f">작성일시</text>
</g>

<!-- cardinality labels -->
<g font-size="11" fill="#6b7280" font-weight="600">
  <text x="551" y="140">1</text><text x="551" y="164">N</text>
  <text x="438" y="70">1</text><text x="140" y="180">1</text>
  <text x="486" y="120">1</text><text x="452" y="424">N</text>
  <text x="551" y="322">1</text><text x="551" y="356">1</text>
  <text x="516" y="512">1</text><text x="434" y="540">N</text>
  <text x="596" y="512">1</text><text x="636" y="540">N</text>
  <text x="652" y="224">N</text><text x="766" y="224">1</text>
  <text x="652" y="414">N</text><text x="766" y="296">1</text>
  <text x="136" y="336">1</text><text x="136" y="356">N</text>
  <text x="186" y="336">1</text><text x="326" y="356">N</text>
</g>
</svg>
